<svg width="205" height="62" viewBox="0 0 205 62" fill="none" xmlns="http://www.w3.org/2000/svg">
<rect width="1440" height="1024" fill="white"/>
<rect width="1440" height="69" fill="#131212"/>
<path d="M92.5949 45L87.5414 26.5187H89.8155L93.6778 41.5709H93.8583L97.7928 26.5187H100.32L104.254 41.5709H104.434L108.297 26.5187H110.571L105.517 45H103.207L99.1283 30.2727H98.984L94.9051 45H92.5949ZM115.2 36.6618V45H113.071V26.5187H115.2V33.3048H115.381C115.706 32.5889 116.193 32.0204 116.843 31.5993C117.498 31.1721 118.371 30.9586 119.46 30.9586C120.404 30.9586 121.231 31.1481 121.941 31.5271C122.651 31.9001 123.202 32.4746 123.593 33.2507C123.99 34.0207 124.188 35.0013 124.188 36.1925V45H122.058V36.3369C122.058 35.236 121.773 34.3847 121.201 33.7831C120.636 33.1755 119.851 32.8717 118.846 32.8717C118.148 32.8717 117.522 33.0191 116.969 33.3138C116.421 33.6086 115.988 34.0388 115.669 34.6043C115.357 35.1698 115.2 35.8556 115.2 36.6618ZM128.084 45V31.139H130.214V45H128.084ZM129.167 28.8289C128.752 28.8289 128.394 28.6875 128.093 28.4047C127.799 28.122 127.651 27.7821 127.651 27.385C127.651 26.988 127.799 26.6481 128.093 26.3653C128.394 26.0826 128.752 25.9412 129.167 25.9412C129.582 25.9412 129.937 26.0826 130.232 26.3653C130.533 26.6481 130.683 26.988 130.683 27.385C130.683 27.7821 130.533 28.122 130.232 28.4047C129.937 28.6875 129.582 28.8289 129.167 28.8289ZM134.115 45V31.139H136.172V33.2326H136.317C136.569 32.5468 137.026 31.9903 137.688 31.5632C138.35 31.136 139.096 30.9225 139.926 30.9225C140.083 30.9225 140.278 30.9255 140.513 30.9315C140.747 30.9375 140.925 30.9465 141.045 30.9586V33.1243C140.973 33.1063 140.807 33.0792 140.549 33.0431C140.296 33.001 140.028 32.9799 139.746 32.9799C139.072 32.9799 138.47 33.1213 137.941 33.4041C137.417 33.6808 137.002 34.0658 136.696 34.5592C136.395 35.0465 136.244 35.6029 136.244 36.2286V45H134.115ZM143.858 45V26.5187H150.103C151.553 26.5187 152.738 26.7804 153.658 27.3038C154.585 27.8212 155.271 28.5221 155.716 29.4064C156.161 30.2908 156.384 31.2774 156.384 32.3663C156.384 33.4552 156.161 34.4449 155.716 35.3352C155.277 36.2256 154.597 36.9355 153.677 37.4649C152.756 37.9883 151.577 38.25 150.139 38.25H145.663V36.2647H150.067C151.06 36.2647 151.857 36.0932 152.458 35.7503C153.06 35.4074 153.496 34.9442 153.767 34.3606C154.044 33.7711 154.182 33.1063 154.182 32.3663C154.182 31.6263 154.044 30.9646 153.767 30.381C153.496 29.7975 153.057 29.3402 152.449 29.0094C151.842 28.6725 151.036 28.504 150.031 28.504H146.096V45H143.858ZM165.182 45.2888C163.931 45.2888 162.833 44.991 161.888 44.3954C160.95 43.7998 160.216 42.9666 159.687 41.8957C159.163 40.8249 158.901 39.5735 158.901 38.1417C158.901 36.6979 159.163 35.4375 159.687 34.3606C160.216 33.2838 160.95 32.4475 161.888 31.8519C162.833 31.2564 163.931 30.9586 165.182 30.9586C166.434 30.9586 167.528 31.2564 168.467 31.8519C169.412 32.4475 170.145 33.2838 170.669 34.3606C171.198 35.4375 171.463 36.6979 171.463 38.1417C171.463 39.5735 171.198 40.8249 170.669 41.8957C170.145 42.9666 169.412 43.7998 168.467 44.3954C167.528 44.991 166.434 45.2888 165.182 45.2888ZM165.182 43.3757C166.133 43.3757 166.915 43.132 167.528 42.6447C168.142 42.1574 168.596 41.5167 168.891 40.7226C169.186 39.9285 169.333 39.0682 169.333 38.1417C169.333 37.2152 169.186 36.3519 168.891 35.5518C168.596 34.7517 168.142 34.1049 167.528 33.6116C166.915 33.1183 166.133 32.8717 165.182 32.8717C164.232 32.8717 163.45 33.1183 162.836 33.6116C162.222 34.1049 161.768 34.7517 161.473 35.5518C161.179 36.3519 161.031 37.2152 161.031 38.1417C161.031 39.0682 161.179 39.9285 161.473 40.7226C161.768 41.5167 162.222 42.1574 162.836 42.6447C163.45 43.132 164.232 43.3757 165.182 43.3757ZM180.345 45.2888C179.094 45.2888 177.996 44.991 177.051 44.3954C176.113 43.7998 175.379 42.9666 174.849 41.8957C174.326 40.8249 174.064 39.5735 174.064 38.1417C174.064 36.6979 174.326 35.4375 174.849 34.3606C175.379 33.2838 176.113 32.4475 177.051 31.8519C177.996 31.2564 179.094 30.9586 180.345 30.9586C181.596 30.9586 182.691 31.2564 183.63 31.8519C184.574 32.4475 185.308 33.2838 185.832 34.3606C186.361 35.4375 186.626 36.6979 186.626 38.1417C186.626 39.5735 186.361 40.8249 185.832 41.8957C185.308 42.9666 184.574 43.7998 183.63 44.3954C182.691 44.991 181.596 45.2888 180.345 45.2888ZM180.345 43.3757C181.295 43.3757 182.078 43.132 182.691 42.6447C183.305 42.1574 183.759 41.5167 184.054 40.7226C184.349 39.9285 184.496 39.0682 184.496 38.1417C184.496 37.2152 184.349 36.3519 184.054 35.5518C183.759 34.7517 183.305 34.1049 182.691 33.6116C182.078 33.1183 181.295 32.8717 180.345 32.8717C179.394 32.8717 178.612 33.1183 177.999 33.6116C177.385 34.1049 176.931 34.7517 176.636 35.5518C176.341 36.3519 176.194 37.2152 176.194 38.1417C176.194 39.0682 176.341 39.9285 176.636 40.7226C176.931 41.5167 177.385 42.1574 177.999 42.6447C178.612 43.132 179.394 43.3757 180.345 43.3757ZM192.006 26.5187V45H189.877V26.5187H192.006Z" fill="white"/>
<rect width="52" height="45" transform="translate(16 11)" fill="white"/>
<path d="M44.2317 21.2375C44.22 22.0099 43.4993 22.6337 42.6067 22.6438C41.7141 22.6337 40.9933 22.0099 40.9817 21.2375V16.1562C40.9817 15.3796 41.7092 14.75 42.6067 14.75C43.5041 14.75 44.2317 15.3796 44.2317 16.1562V21.2375Z" fill="black"/>
<path fill-rule="evenodd" clip-rule="evenodd" d="M42.7583 24.3687H42.6066C38.4682 24.3038 34.6487 26.2853 32.7645 29.4746C30.8803 32.6639 31.2608 36.5036 33.745 39.3688C35.9091 41.8747 37.1136 44.9035 37.19 48.0313C37.5358 50.3922 39.8566 52.1621 42.6066 52.1621C45.3567 52.1621 47.6775 50.3922 48.0233 48.0313C47.9085 45.0294 48.9868 42.0843 51.0783 39.6875C52.5545 38.0861 53.384 36.1104 53.44 34.0625C53.5143 28.8564 48.771 24.5518 42.7583 24.3687ZM42.6067 49.9063C41.41 49.9063 40.44 49.0668 40.44 48.0313V47.5438H44.9033V48.0687C44.8926 48.5796 44.6414 49.0646 44.2079 49.4114C43.7743 49.7583 43.196 49.937 42.6067 49.9063Z" fill="black"/>
<path d="M42.6066 24.3687L42.715 27.1813C45.6368 27.2192 48.2799 28.6905 49.5312 30.9757C50.7825 33.2609 50.4247 35.9628 48.6083 37.9438C46.8542 39.9075 45.6792 42.2114 45.185 44.6563H39.985C39.3333 42.1352 38.0948 39.7555 36.345 37.6625C34.6824 35.637 34.4662 32.9775 35.7847 30.7705C37.1032 28.5634 39.7356 27.1785 42.6066 27.1813V24.3687Z" fill="black"/>
<path d="M58.445 20.1313C57.8106 19.5829 56.7828 19.5829 56.1483 20.1313L52.0967 23.6188C51.472 24.1783 51.472 25.0655 52.0967 25.625C52.7518 26.1468 53.7598 26.1468 54.415 25.625L58.445 22.1188C59.0786 21.5697 59.0786 20.6803 58.445 20.1313Z" fill="black"/>
<path d="M57.1666 31.6813H62.865C63.7624 31.6813 64.49 32.3109 64.49 33.0875C64.49 33.8642 63.7624 34.4938 62.865 34.4938H57.1666C56.2692 34.4938 55.5417 33.8642 55.5417 33.0875C55.5417 32.3109 56.2692 31.6813 57.1666 31.6813Z" fill="black"/>
<path d="M27.6566 31.6813H21.9583C21.0609 31.6813 20.3333 32.3109 20.3333 33.0875C20.3333 33.8642 21.0609 34.4938 21.9583 34.4938H27.6566C28.5541 34.4938 29.2816 33.8642 29.2816 33.0875C29.2816 32.3109 28.5541 31.6813 27.6566 31.6813Z" fill="black"/>
<path d="M33.3645 24.6219C33.3645 24.9991 33.1893 25.3606 32.8783 25.625C32.5691 25.8802 32.1573 26.0214 31.73 26.0188C31.3031 26.0195 30.8921 25.8786 30.5816 25.625L26.5516 22.1188C26.1169 21.7682 25.9379 21.2402 26.085 20.742C26.232 20.2437 26.6816 19.8546 27.2574 19.7274C27.8331 19.6002 28.4432 19.755 28.8483 20.1313L32.8783 23.6187C33.1893 23.8832 33.3645 24.2446 33.3645 24.6219Z" fill="black"/>
</svg>
